<?xml version="1.0" standalone="no"?><!DOCTYPE svg PUBLIC "-//W3C//DTD SVG 1.1//EN" "http://www.w3.org/Graphics/SVG/1.1/DTD/svg11.dtd"><svg t="1550215821705" class="icon" style="" viewBox="0 0 1024 1024" version="1.1" xmlns="http://www.w3.org/2000/svg" p-id="7741" xmlns:xlink="http://www.w3.org/1999/xlink" width="32" height="32"><defs><style type="text/css"></style></defs><path d="M512 0C326.4 0 160 96 70.4 256s-89.6 352 0 512 262.4 256 441.6 256c281.6 0 512-230.4 512-512s-230.4-512-512-512z m300.8 384l-345.6 339.2c-25.6 25.6-64 25.6-83.2 0L211.2 556.8C198.4 544 192 524.8 192 512s6.4-32 19.2-44.8c25.6-25.6 64-25.6 83.2 0l128 128 300.8-300.8c25.6-25.6 64-25.6 83.2 0 19.2 12.8 25.6 32 25.6 44.8s-6.4 32-19.2 44.8z" fill="#33B86C" p-id="7742"></path></svg>